<?xml version="1.0" standalone="no"?>
<!DOCTYPE svg PUBLIC "-//W3C//DTD SVG 20010904//EN"
 "http://www.w3.org/TR/2001/REC-SVG-20010904/DTD/svg10.dtd">
<svg version="1.0" xmlns="http://www.w3.org/2000/svg"
 width="381.000000pt" height="162.000000pt" viewBox="0 0 381.000000 162.000000"
 preserveAspectRatio="xMidYMid meet">

<g transform="translate(0.000000,162.000000) scale(0.100000,-0.100000)"
fill="#C19B6C" stroke="none">
<path d="M2142 1500 l-62 -51 0 -64 c0 -38 -4 -65 -10 -65 -6 0 -107 23 -225
51 l-216 51 -116 -99 c-64 -54 -130 -109 -146 -123 -32 -28 -34 -62 -4 -68 16
-3 128 84 237 185 l35 32 50 -47 c27 -27 151 -143 274 -258 l224 -209 -57 -7
c-47 -6 -65 -14 -103 -48 -25 -22 -50 -40 -55 -40 -5 0 -51 38 -102 84 l-93
83 -178 43 -179 43 40 36 c93 85 186 166 196 170 6 2 72 -58 148 -134 135
-134 170 -157 178 -115 3 15 -301 330 -318 330 -5 0 -45 -30 -88 -67 -43 -38
-103 -90 -135 -117 -40 -35 -57 -57 -57 -74 0 -19 -4 -23 -17 -17 -10 3 -145
38 -300 76 l-283 70 -29 -23 c-60 -49 -476 -413 -483 -423 -13 -17 -4 -40 18
-43 13 -2 51 24 115 80 53 46 161 140 242 211 80 70 150 127 156 127 6 0 220
-52 477 -115 l466 -115 89 -77 c49 -42 89 -78 89 -78 0 -3 -156 -141 -348
-309 -100 -87 -182 -164 -182 -171 0 -7 6 -17 13 -22 7 -6 184 -13 442 -16
l430 -7 359 353 c268 265 357 358 354 373 -9 49 -47 18 -391 -322 l-345 -341
-364 5 c-200 2 -365 7 -368 9 -3 3 20 28 50 56 58 53 450 395 500 435 22 18
51 27 117 35 120 16 121 27 6 137 -105 102 -336 317 -392 367 -23 19 -41 39
-41 42 0 4 70 -9 155 -28 155 -36 155 -36 155 -64 0 -30 16 -67 28 -67 31 1
37 23 42 141 l5 122 37 30 36 29 96 -51 95 -52 3 -142 3 -142 25 0 c20 0 26 6
30 32 l5 32 135 -130 c74 -71 140 -129 146 -129 6 0 73 16 148 35 76 19 144
35 152 35 8 0 54 -33 102 -73 281 -236 396 -327 412 -327 15 0 30 18 30 35 0
4 -26 26 -354 299 l-168 139 -143 -36 c-79 -21 -151 -37 -162 -37 -10 0 -74
56 -148 130 -71 72 -135 130 -142 130 -10 0 -13 24 -13 90 l0 90 -37 23 c-60
37 -209 117 -219 117 -5 0 -37 -23 -72 -50z"/>
<path d="M1612 1048 c3 -30 6 -33 41 -36 36 -3 37 -3 37 32 0 35 -1 36 -41 36
-39 0 -40 -1 -37 -32z"/>
<path d="M623 844 c-448 -386 -513 -445 -513 -464 0 -23 28 -34 49 -18 19 15
332 285 505 436 l118 103 117 -112 c64 -61 132 -128 151 -149 19 -20 61 -60
92 -90 48 -44 60 -51 73 -40 8 7 15 18 15 24 0 18 -418 431 -440 434 -12 2
-68 -40 -167 -124z"/>
<path d="M2821 636 c-146 -146 -202 -209 -198 -220 13 -33 48 -15 129 67 46
45 131 128 189 185 l106 102 129 -102 c183 -145 251 -198 319 -251 33 -26 92
-72 130 -102 73 -58 110 -68 110 -29 0 16 -49 60 -189 170 -368 291 -491 384
-506 384 -8 0 -107 -92 -219 -204z"/>
<path d="M630 515 l0 -65 65 0 65 0 0 65 0 65 -65 0 -65 0 0 -65z"/>
<path d="M800 515 l0 -65 65 0 65 0 0 65 0 65 -65 0 -65 0 0 -65z"/>
<path d="M2937 494 c-4 -4 -7 -34 -7 -66 l0 -58 70 0 71 0 -3 63 -3 62 -60 3
c-34 2 -64 0 -68 -4z"/>
<path d="M3100 435 l0 -65 65 0 65 0 0 65 0 65 -65 0 -65 0 0 -65z"/>
<path d="M630 345 l0 -65 65 0 65 0 0 65 0 65 -65 0 -65 0 0 -65z"/>
<path d="M800 345 l0 -65 65 0 65 0 0 65 0 65 -65 0 -65 0 0 -65z"/>
<path d="M2930 265 l0 -65 70 0 71 0 -3 63 -3 62 -67 3 -68 3 0 -66z"/>
<path d="M3100 265 l0 -65 65 0 65 0 0 65 0 65 -65 0 -65 0 0 -65z"/>
</g>
</svg>
